<?xml version="1.0" standalone="no"?>
<!DOCTYPE svg PUBLIC "-//W3C//DTD SVG 20010904//EN"
 "http://www.w3.org/TR/2001/REC-SVG-20010904/DTD/svg10.dtd">
<svg version="1.0" xmlns="http://www.w3.org/2000/svg"
 width="548.000000pt" height="574.000000pt" viewBox="0 0 548.000000 574.000000"
 preserveAspectRatio="xMidYMid meet">

<g transform="translate(0.000000,574.000000) scale(0.100000,-0.100000)"
fill="#000000" stroke="none">
<path d="M2350 5450 c-781 -63 -1495 -490 -1932 -1155 -202 -307 -340 -680
-399 -1080 -21 -137 -18 -531 4 -675 62 -398 193 -741 407 -1062 203 -307 482
-578 790 -769 109 -67 357 -189 469 -229 113 -41 361 -105 481 -125 70 -11
176 -15 406 -15 270 0 328 3 434 21 716 121 1357 557 1745 1184 186 300 315
666 366 1035 18 124 17 496 0 620 -43 315 -128 588 -266 859 -201 395 -503
731 -885 984 -212 140 -531 279 -783 341 -244 60 -581 87 -837 66z m-318
-2549 l3 -515 271 267 272 267 358 -362 c197 -200 500 -506 674 -680 l315
-318 -540 0 -540 -1 -407 413 -407 413 -1 -417 0 -418 -380 0 -380 0 0 1313 0
1313 380 -381 380 -380 2 -514z"/>
</g>
</svg>
