<?xml version="1.0" standalone="no"?>
<!DOCTYPE svg PUBLIC "-//W3C//DTD SVG 20010904//EN"
 "http://www.w3.org/TR/2001/REC-SVG-20010904/DTD/svg10.dtd">
<svg version="1.0" xmlns="http://www.w3.org/2000/svg"
 width="161.000000pt" height="161.000000pt" viewBox="0 0 161.000000 161.000000"
 preserveAspectRatio="xMidYMid meet">

<g transform="translate(0.000000,161.000000) scale(0.100000,-0.100000)"
fill="#000000" stroke="none">
<path d="M395 1502 c-6 -5 -28 -14 -50 -20 -150 -42 -256 -218 -227 -374 22
-118 89 -210 185 -253 29 -13 126 -38 217 -56 151 -30 168 -35 197 -64 55 -55
54 -132 -2 -185 -17 -16 -99 -44 -279 -95 -140 -39 -262 -78 -271 -85 -9 -8
-26 -32 -37 -53 -35 -69 -12 -135 62 -182 l40 -25 390 0 c294 0 396 3 413 13
42 23 77 60 88 94 22 67 7 95 -126 239 -129 140 -146 170 -131 230 22 86 116
132 189 93 14 -8 69 -63 122 -124 54 -60 111 -118 129 -127 64 -37 139 -11
176 61 18 37 20 58 20 272 0 211 -2 236 -20 274 -11 22 -33 48 -49 58 -36 21
-109 22 -138 2 -12 -8 -78 -78 -148 -155 -142 -157 -171 -175 -237 -147 -59
25 -82 68 -127 236 -23 85 -51 174 -63 198 -39 77 -151 162 -215 163 -12 0
-25 5 -28 10 -7 12 -67 13 -80 2z"/>
</g>
</svg>
